# Blender 4.0.2
# www.blender.org
o ingot
v -0.181742 0.000000 0.056742
v -0.179534 0.005538 0.060924
v -0.185630 0.005445 0.054988
v -0.181026 0.001641 0.060389
v -0.184205 0.002321 0.059363
v -0.183774 0.005491 0.059149
v -0.185336 0.001576 0.056192
v -0.155680 0.074982 0.041163
v -0.154084 0.080519 0.033830
v -0.161712 0.075074 0.035174
v -0.154495 0.078878 0.038410
v -0.158141 0.078198 0.037771
v -0.158760 0.078944 0.034176
v -0.159889 0.075028 0.039361
v -0.181742 0.000000 -0.056742
v -0.185630 0.005445 -0.054988
v -0.179534 0.005538 -0.060924
v -0.185336 0.001576 -0.056192
v -0.184205 0.002321 -0.059363
v -0.183774 0.005491 -0.059149
v -0.181026 0.001641 -0.060389
v -0.154084 0.080519 -0.033830
v -0.155680 0.074982 -0.041163
v -0.161712 0.075074 -0.035174
v -0.154495 0.078878 -0.038410
v -0.158141 0.078198 -0.037771
v -0.159889 0.075028 -0.039361
v -0.158760 0.078944 -0.034176
v 0.181742 0.000000 0.056742
v 0.185630 0.005445 0.054988
v 0.179534 0.005538 0.060924
v 0.185336 0.001576 0.056192
v 0.184205 0.002321 0.059363
v 0.183774 0.005491 0.059149
v 0.181026 0.001641 0.060389
v 0.154084 0.080519 0.033830
v 0.155680 0.074982 0.041163
v 0.161712 0.075074 0.035174
v 0.154495 0.078878 0.038410
v 0.158141 0.078198 0.037771
v 0.159889 0.075028 0.039361
v 0.158760 0.078944 0.034176
v 0.181742 0.000000 -0.056742
v 0.179534 0.005538 -0.060924
v 0.185630 0.005445 -0.054988
v 0.181026 0.001641 -0.060389
v 0.184205 0.002321 -0.059363
v 0.183774 0.005491 -0.059149
v 0.185336 0.001576 -0.056192
v 0.154084 0.080519 -0.033830
v 0.161712 0.075074 -0.035174
v 0.155680 0.074982 -0.041163
v 0.158760 0.078944 -0.034176
v 0.158141 0.078198 -0.037771
v 0.159889 0.075028 -0.039361
v 0.154495 0.078878 -0.038410
vn 0.1788 0.1348 0.9746
vn 0.1577 0.4508 0.8786
vn -0.1577 0.4508 0.8786
vn -0.1788 0.1348 0.9746
vn 0.9662 0.1799 -0.1847
vn 0.8592 0.4847 -0.1637
vn 0.8592 0.4847 0.1637
vn 0.9662 0.1799 0.1847
vn 0.1436 0.9778 -0.1528
vn -0.1436 0.9778 -0.1528
vn -0.1436 0.9778 0.1528
vn 0.1436 0.9778 0.1528
vn -0.9662 0.1799 0.1847
vn -0.8592 0.4847 0.1637
vn -0.8592 0.4847 -0.1637
vn -0.9662 0.1799 -0.1847
vn -0.1788 0.1348 -0.9746
vn -0.1577 0.4508 -0.8786
vn 0.1577 0.4508 -0.8786
vn 0.1788 0.1348 -0.9746
vn -0.2064 -0.9551 0.2126
vn -0.2141 -0.5407 0.8135
vn -0.6609 -0.3398 0.6692
vn -0.8191 -0.5269 0.2269
vn -0.6783 0.2369 0.6955
vn -0.1327 0.8000 0.5851
vn -0.4630 0.7439 0.4819
vn -0.6014 0.5080 0.6166
vn -0.5635 0.8141 0.1405
vn -0.2064 -0.9551 -0.2126
vn -0.8191 -0.5269 -0.2269
vn -0.6609 -0.3398 -0.6692
vn -0.2141 -0.5407 -0.8135
vn -0.6783 0.2369 -0.6955
vn -0.1327 0.8000 -0.5851
vn -0.4630 0.7439 -0.4819
vn -0.5635 0.8141 -0.1405
vn -0.6014 0.5080 -0.6166
vn 0.2064 -0.9551 0.2126
vn 0.8191 -0.5269 0.2269
vn 0.6609 -0.3398 0.6692
vn 0.2141 -0.5407 0.8135
vn 0.6783 0.2369 0.6955
vn 0.1327 0.8000 0.5851
vn 0.4630 0.7439 0.4819
vn 0.5635 0.8141 0.1405
vn 0.6014 0.5080 0.6166
vn 0.2064 -0.9551 -0.2126
vn 0.2141 -0.5407 -0.8135
vn 0.6609 -0.3398 -0.6692
vn 0.8191 -0.5269 -0.2269
vn 0.6783 0.2369 -0.6955
vn 0.5635 0.8141 -0.1405
vn 0.4630 0.7439 -0.4819
vn 0.1327 0.8000 -0.5851
vn 0.6014 0.5080 -0.6166
vt 0.504163 0.739560
vt 0.358052 0.691297
vt 0.358014 0.061221
vt 0.504119 0.012941
vt 0.773976 0.021841
vt 0.741599 0.177619
vt 0.591584 0.175851
vt 0.560719 0.021568
vt 0.199372 0.688120
vt 0.199328 0.064874
vt 0.336164 0.064864
vt 0.336208 0.688110
vt 0.773976 0.226571
vt 0.741599 0.382350
vt 0.591584 0.380581
vt 0.560719 0.226298
vt 0.031374 0.013424
vt 0.177484 0.061687
vt 0.177522 0.691763
vt 0.031418 0.740043
vt 0.780935 0.210526
vt 0.790141 0.217482
vt 0.782791 0.220187
vt 0.776373 0.219007
vt 0.793553 0.228010
vt 0.783346 0.226613
vt 0.759986 0.389476
vt 0.752177 0.399079
vt 0.748045 0.391497
vt 0.751115 0.383741
vt 0.741149 0.403665
vt 0.740208 0.392763
vt 0.553786 0.210526
vt 0.558285 0.218624
vt 0.551970 0.219848
vt 0.544783 0.217190
vt 0.551415 0.226232
vt 0.541332 0.227536
vt 0.591685 0.402073
vt 0.580741 0.397158
vt 0.585016 0.389638
vt 0.592847 0.391022
vt 0.573180 0.387436
vt 0.582069 0.381860
vt 0.553786 0.005795
vt 0.558285 0.013894
vt 0.551970 0.015118
vt 0.544783 0.012460
vt 0.551415 0.021502
vt 0.541332 0.022806
vt 0.591685 0.197342
vt 0.580741 0.192428
vt 0.585016 0.184908
vt 0.592847 0.186291
vt 0.573180 0.182706
vt 0.582069 0.177130
vt 0.780935 0.005795
vt 0.790141 0.012752
vt 0.782791 0.015457
vt 0.776373 0.014277
vt 0.793553 0.023280
vt 0.783346 0.021883
vt 0.741149 0.198935
vt 0.740208 0.188033
vt 0.748045 0.186767
vt 0.752177 0.194349
vt 0.751115 0.179011
vt 0.759986 0.184746
vt 0.005795 0.747189
vt 0.005796 0.009088
vt 0.018639 0.010474
vt 0.018652 0.744884
vt 0.188478 0.689040
vt 0.188435 0.064062
vt 0.529741 0.005795
vt 0.529741 0.743896
vt 0.516897 0.742510
vt 0.516884 0.008100
vt 0.347058 0.063944
vt 0.347101 0.688922
vt 0.759847 0.994205
vt 0.005795 0.994205
vt 0.005795 0.758780
vt 0.759847 0.758780
s 1
f 31/1/1 37/2/2 8/3/3 2/4/4
f 45/5/5 51/6/6 38/7/7 30/8/8
f 50/9/9 22/10/10 9/11/11 36/12/12
f 3/13/13 10/14/14 24/15/15 16/16/16
f 17/17/17 23/18/18 52/19/19 44/20/20
f 1/21/21 4/22/22 5/23/23 7/24/24
f 2/25/4 6/26/25 5/23/23 4/22/22
f 3/13/13 7/24/24 5/23/23 6/26/25
f 8/27/3 11/28/26 12/29/27 14/30/28
f 9/31/11 13/32/29 12/29/27 11/28/26
f 10/14/14 14/30/28 12/29/27 13/32/29
f 15/33/30 18/34/31 19/35/32 21/36/33
f 16/16/16 20/37/34 19/35/32 18/34/31
f 17/38/17 21/36/33 19/35/32 20/37/34
f 22/39/10 25/40/35 26/41/36 28/42/37
f 23/43/18 27/44/38 26/41/36 25/40/35
f 24/15/15 28/42/37 26/41/36 27/44/38
f 29/45/39 32/46/40 33/47/41 35/48/42
f 30/8/8 34/49/43 33/47/41 32/46/40
f 31/50/1 35/48/42 33/47/41 34/49/43
f 36/51/12 39/52/44 40/53/45 42/54/46
f 37/55/2 41/56/47 40/53/45 39/52/44
f 38/7/7 42/54/46 40/53/45 41/56/47
f 43/57/48 46/58/49 47/59/50 49/60/51
f 44/61/20 48/62/52 47/59/50 46/58/49
f 45/5/5 49/60/51 47/59/50 48/62/52
f 50/63/9 53/64/53 54/65/54 56/66/55
f 51/6/6 55/67/56 54/65/54 53/64/53
f 52/68/19 56/66/55 54/65/54 55/67/56
f 15/33/30 1/21/21 7/24/24 18/34/31
f 18/34/31 7/24/24 3/13/13 16/16/16
f 2/25/4 8/27/3 14/30/28 6/26/25
f 6/26/25 14/30/28 10/14/14 3/13/13
f 9/31/11 22/39/10 28/42/37 13/32/29
f 13/32/29 28/42/37 24/15/15 10/14/14
f 23/43/18 17/38/17 20/37/34 27/44/38
f 27/44/38 20/37/34 16/16/16 24/15/15
f 43/69/48 15/70/30 21/71/33 46/72/49
f 46/72/49 21/71/33 17/17/17 44/20/20
f 22/10/10 50/9/9 56/73/55 25/74/35
f 25/74/35 56/73/55 52/19/19 23/18/18
f 51/6/6 45/5/5 48/62/52 55/67/56
f 55/67/56 48/62/52 44/61/20 52/68/19
f 29/45/39 43/57/48 49/60/51 32/46/40
f 32/46/40 49/60/51 45/5/5 30/8/8
f 50/63/9 36/51/12 42/54/46 53/64/53
f 53/64/53 42/54/46 38/7/7 51/6/6
f 37/55/2 31/50/1 34/49/43 41/56/47
f 41/56/47 34/49/43 30/8/8 38/7/7
f 1/75/21 29/76/39 35/77/42 4/78/22
f 4/78/22 35/77/42 31/1/1 2/4/4
f 36/12/12 9/11/11 11/79/26 39/80/44
f 39/80/44 11/79/26 8/3/3 37/2/2
f 15/81/30 43/82/48 29/83/39 1/84/21
