# Blender 4.0.2
# www.blender.org
o storage_box_01
v 0.124197 0.171357 -0.000000
v 0.124197 0.074268 -0.000000
v 0.047525 0.171357 0.170775
v 0.038426 0.133448 0.170775
v 0.124197 0.171357 0.170775
v 0.124197 0.074268 0.170775
v 0.124197 -0.000000 -0.000000
v 0.124197 -0.000000 0.170775
v 0.121555 0.074268 -0.000000
v 0.121555 0.171357 -0.000000
v 0.047525 0.171357 0.167871
v 0.038426 0.133448 0.167871
v 0.121267 0.005453 -0.000000
v 0.121535 0.074268 0.167851
v 0.121606 0.171357 0.167921
v 0.121388 0.005453 0.167704
v 0.077962 -0.000000 -0.000000
v 0.077962 -0.000000 0.170775
v 0.077962 0.074268 0.170775
v 0.077962 0.171357 0.170775
v 0.077962 0.171357 0.167897
v 0.077962 0.005453 -0.000000
v 0.077962 0.005453 0.167591
v 0.077962 0.074268 0.167884
v 0.000000 0.005453 0.167591
v 0.000000 0.133448 0.167871
v 0.000000 0.133448 0.170775
v 0.000000 -0.000000 0.000000
v 0.000000 -0.000000 0.170775
v 0.000000 0.074268 0.170775
v 0.000000 0.005453 0.000000
v 0.000000 0.074268 0.167884
v -0.124197 0.171357 0.000000
v -0.124197 0.074268 0.000000
v -0.047525 0.171357 0.170775
v -0.038426 0.133448 0.170775
v -0.124197 0.171357 0.170775
v -0.124197 0.074268 0.170775
v -0.124197 -0.000000 0.000000
v -0.124197 -0.000000 0.170775
v -0.121555 0.074268 0.000000
v -0.121555 0.171357 0.000000
v -0.047525 0.171357 0.167871
v -0.038426 0.133448 0.167871
v -0.121267 0.005453 0.000000
v -0.121535 0.074268 0.167851
v -0.121605 0.171357 0.167921
v -0.121388 0.005453 0.167704
v -0.077962 -0.000000 0.000000
v -0.077962 -0.000000 0.170775
v -0.077962 0.074268 0.170775
v -0.077962 0.171357 0.170775
v -0.077962 0.171357 0.167897
v -0.077962 0.005453 0.000000
v -0.077962 0.005453 0.167591
v -0.077962 0.074268 0.167884
v 0.047525 0.171357 -0.170775
v 0.038426 0.133448 -0.170775
v 0.124197 0.171357 -0.170775
v 0.124197 0.074268 -0.170775
v 0.124197 -0.000000 -0.170775
v 0.047525 0.171357 -0.167871
v 0.038426 0.133448 -0.167871
v 0.121535 0.074268 -0.167851
v 0.121605 0.171357 -0.167921
v 0.121388 0.005453 -0.167704
v 0.077962 -0.000000 -0.170775
v 0.077962 0.074268 -0.170775
v 0.077962 0.171357 -0.170775
v 0.077962 0.171357 -0.167897
v 0.077962 0.005453 -0.167591
v 0.077962 0.074268 -0.167884
v -0.000000 0.005453 -0.167591
v -0.000000 0.133448 -0.167871
v -0.000000 0.133448 -0.170775
v -0.000000 -0.000000 -0.170775
v -0.000000 0.074268 -0.170775
v -0.000000 0.074268 -0.167884
v -0.047525 0.171357 -0.170775
v -0.038426 0.133448 -0.170775
v -0.124197 0.171357 -0.170775
v -0.124197 0.074268 -0.170775
v -0.124197 -0.000000 -0.170775
v -0.047525 0.171357 -0.167871
v -0.038426 0.133448 -0.167871
v -0.121535 0.074268 -0.167851
v -0.121606 0.171357 -0.167921
v -0.121388 0.005453 -0.167704
v -0.077962 -0.000000 -0.170775
v -0.077962 0.074268 -0.170775
v -0.077962 0.171357 -0.170775
v -0.077962 0.171357 -0.167897
v -0.077962 0.005453 -0.167591
v -0.077962 0.074268 -0.167884
v -0.127177 0.160528 0.174873
v 0.127177 0.160528 -0.174873
v -0.127177 0.160528 -0.174873
v 0.127177 0.160528 0.174873
v -0.127177 0.190761 0.174873
v 0.127177 0.190761 -0.174873
v -0.127177 0.190761 -0.174873
v 0.127177 0.190761 0.174873
v -0.125341 0.160528 0.172618
v 0.125341 0.160528 -0.172618
v -0.125341 0.160528 -0.172618
v 0.125341 0.160528 0.172618
v -0.125270 0.189198 0.172547
v 0.125270 0.189198 -0.172547
v -0.125270 0.189198 -0.172547
v 0.125270 0.189198 0.172547
vn -1.0000 0.0018 -0.0000
vn -1.0000 0.0018 0.0002
vn -1.0000 0.0004 0.0001
vn -1.0000 0.0004 -0.0000
vn 0.0005 0.0037 -1.0000
vn -0.0000 0.0043 -1.0000
vn -0.0000 0.0020 -1.0000
vn 0.0003 0.0019 -1.0000
vn -0.0000 1.0000 -0.0000
vn 1.0000 -0.0000 -0.0000
vn -0.0000 -0.0000 1.0000
vn -1.0000 0.0032 0.0003
vn -1.0000 0.0032 -0.0000
vn -0.0000 -1.0000 -0.0000
vn -0.9724 0.2334 -0.0000
vn 0.0003 -0.0001 -1.0000
vn 0.0006 0.0001 -1.0000
vn 0.0002 0.0002 -1.0000
vn 0.0004 0.0018 -1.0000
vn 0.0009 0.0032 -1.0000
vn -0.0000 -0.0002 -1.0000
vn -0.0001 0.0004 -1.0000
vn 1.0000 0.0018 -0.0000
vn 1.0000 0.0004 -0.0000
vn 1.0000 0.0004 0.0001
vn 1.0000 0.0018 0.0002
vn -0.0005 0.0037 -1.0000
vn -0.0003 0.0019 -1.0000
vn -1.0000 -0.0000 -0.0000
vn 1.0000 0.0032 0.0003
vn 1.0000 0.0032 -0.0000
vn 0.9724 0.2334 -0.0000
vn -0.0002 0.0002 -1.0000
vn -0.0006 0.0001 -1.0000
vn -0.0003 -0.0001 -1.0000
vn -0.0009 0.0032 -1.0000
vn -0.0004 0.0018 -1.0000
vn 0.0001 0.0004 -1.0000
vn -1.0000 0.0004 -0.0001
vn -1.0000 0.0018 -0.0002
vn 0.0005 0.0037 1.0000
vn 0.0003 0.0019 1.0000
vn -0.0000 0.0020 1.0000
vn -0.0000 0.0043 1.0000
vn -0.0000 -0.0000 -1.0000
vn -1.0000 0.0032 -0.0003
vn 0.0002 0.0002 1.0000
vn 0.0006 0.0001 1.0000
vn 0.0003 -0.0001 1.0000
vn 0.0009 0.0032 1.0000
vn 0.0004 0.0018 1.0000
vn -0.0000 -0.0002 1.0000
vn -0.0001 0.0004 1.0000
vn 1.0000 0.0018 -0.0002
vn 1.0000 0.0004 -0.0001
vn -0.0005 0.0037 1.0000
vn -0.0003 0.0019 1.0000
vn 1.0000 0.0032 -0.0003
vn -0.0003 -0.0001 1.0000
vn -0.0006 0.0001 1.0000
vn -0.0002 0.0002 1.0000
vn -0.0004 0.0018 1.0000
vn -0.0009 0.0032 1.0000
vn 0.0001 0.0004 1.0000
vn -0.9884 -0.0007 -0.1520
vn -0.9443 -0.2329 -0.2324
vn -0.9443 -0.2329 0.2324
vn -0.9884 -0.0025 0.1520
vn 0.9884 -0.0007 0.1520
vn 0.9443 -0.2329 0.2324
vn 0.9443 -0.2329 -0.2324
vn 0.9884 -0.0025 -0.1520
vn 0.1520 -0.0007 -0.9884
vn 0.2324 -0.2328 -0.9443
vn -0.2324 -0.2328 -0.9443
vn -0.1520 -0.0025 -0.9884
vn -0.1520 -0.0007 0.9884
vn -0.2325 -0.2328 0.9443
vn 0.2325 -0.2328 0.9443
vn 0.1520 -0.0025 0.9884
vn -0.2325 -0.9444 -0.2326
vn 0.2325 -0.9444 -0.2326
vn 0.2325 -0.9444 0.2326
vn -0.2325 -0.9444 0.2326
vt 0.593587 0.285446
vt 0.593519 0.426594
vt 0.511893 0.426622
vt 0.511948 0.285446
vt 0.687892 0.426448
vt 0.753481 0.426431
vt 0.753481 0.484311
vt 0.687929 0.484325
vt 0.651374 0.426502
vt 0.651474 0.285446
vt 0.687898 0.285446
vt 0.420382 0.436266
vt 0.357925 0.436267
vt 0.357925 0.292651
vt 0.420382 0.292651
vt 0.502030 0.292651
vt 0.502030 0.436266
vt 0.357925 0.498723
vt 0.357925 0.580371
vt 0.319044 0.580371
vt 0.319044 0.498723
vt 0.253481 0.498723
vt 0.253481 0.436267
vt 0.319044 0.436267
vt 0.379368 0.864849
vt 0.379368 0.867403
vt 0.342710 0.867403
vt 0.342710 0.864849
vt 0.319044 0.292651
vt 0.430532 0.834391
vt 0.430532 0.836832
vt 0.397747 0.836832
vt 0.397747 0.834391
vt 0.404197 0.864849
vt 0.404197 0.867403
vt 0.721182 0.534066
vt 0.713545 0.565935
vt 0.687960 0.565945
vt 0.253481 0.548491
vt 0.285795 0.548491
vt 0.293447 0.580371
vt 0.753481 0.285446
vt 0.651298 0.484347
vt 0.204565 0.867403
vt 0.204565 0.864849
vt 0.753481 0.534064
vt 0.253481 0.292651
vt 0.462846 0.834391
vt 0.462846 0.836832
vt 0.651273 0.565960
vt 0.913375 0.285446
vt 0.995014 0.285446
vt 0.995068 0.426622
vt 0.913443 0.426594
vt 0.819069 0.426448
vt 0.819033 0.484325
vt 0.819064 0.285446
vt 0.855487 0.285446
vt 0.855587 0.426502
vt 0.086580 0.436267
vt 0.086580 0.292651
vt 0.149036 0.292651
vt 0.149036 0.436267
vt 0.004932 0.292651
vt 0.004932 0.436267
vt 0.149036 0.498723
vt 0.187917 0.498723
vt 0.187917 0.580371
vt 0.149036 0.580371
vt 0.187917 0.436267
vt 0.029362 0.877267
vt 0.065431 0.877267
vt 0.065431 0.879779
vt 0.029362 0.879779
vt 0.187917 0.292651
vt 0.495160 0.834391
vt 0.527945 0.834391
vt 0.527945 0.836832
vt 0.495160 0.836832
vt 0.004932 0.879779
vt 0.004932 0.877267
vt 0.819002 0.565945
vt 0.793417 0.565935
vt 0.785780 0.534066
vt 0.221166 0.548491
vt 0.213514 0.580371
vt 0.855664 0.484347
vt 0.201354 0.877267
vt 0.201354 0.879779
vt 0.855688 0.565960
vt 0.511893 0.144270
vt 0.593519 0.144298
vt 0.687892 0.144445
vt 0.687929 0.086568
vt 0.753481 0.086581
vt 0.753481 0.144461
vt 0.651374 0.144391
vt 0.420382 0.149036
vt 0.357925 0.149036
vt 0.502030 0.149036
vt 0.357925 0.086580
vt 0.319044 0.086580
vt 0.319044 0.004932
vt 0.357925 0.004932
vt 0.319044 0.149036
vt 0.253481 0.149036
vt 0.253481 0.086580
vt 0.029761 0.864849
vt 0.066419 0.864849
vt 0.066419 0.867403
vt 0.029761 0.867403
vt 0.430532 0.849138
vt 0.397747 0.849138
vt 0.397747 0.846696
vt 0.430532 0.846696
vt 0.004932 0.867403
vt 0.004932 0.864849
vt 0.687960 0.004948
vt 0.713545 0.004957
vt 0.721181 0.036826
vt 0.253481 0.036812
vt 0.285795 0.036812
vt 0.293447 0.004932
vt 0.651298 0.086545
vt 0.753481 0.036828
vt 0.462846 0.846696
vt 0.462846 0.849138
vt 0.651273 0.004932
vt 0.913443 0.144298
vt 0.995068 0.144270
vt 0.819069 0.144445
vt 0.819033 0.086568
vt 0.855587 0.144391
vt 0.086580 0.149036
vt 0.149036 0.149036
vt 0.004932 0.149036
vt 0.149036 0.086580
vt 0.149036 0.004932
vt 0.187917 0.004932
vt 0.187917 0.086580
vt 0.187917 0.149036
vt 0.373346 0.877267
vt 0.373346 0.879779
vt 0.337278 0.879779
vt 0.337278 0.877267
vt 0.495160 0.849138
vt 0.495160 0.846696
vt 0.527945 0.846696
vt 0.527945 0.849138
vt 0.397776 0.877267
vt 0.397776 0.879779
vt 0.785780 0.036826
vt 0.793417 0.004957
vt 0.819002 0.004947
vt 0.221166 0.036812
vt 0.213514 0.004932
vt 0.855664 0.086545
vt 0.855688 0.004932
vt 0.679176 0.685896
vt 0.679116 0.710006
vt 0.388906 0.710006
vt 0.388847 0.685896
vt 0.679176 0.651922
vt 0.679116 0.676032
vt 0.388906 0.676032
vt 0.388847 0.651922
vt 0.599659 0.719870
vt 0.599599 0.743981
vt 0.388906 0.743981
vt 0.388847 0.719870
vt 0.030357 0.854985
vt 0.030357 0.829560
vt 0.324479 0.829560
vt 0.324479 0.854985
vt 0.599659 0.753845
vt 0.599599 0.777955
vt 0.388906 0.777955
vt 0.388847 0.753845
vt 0.349903 0.615660
vt 0.349903 0.829560
vt 0.324479 0.615660
vt 0.030357 0.615660
vt 0.004932 0.829560
vt 0.004932 0.615660
vt 0.543077 0.804509
vt 0.392808 0.804527
vt 0.390642 0.801867
vt 0.544160 0.801867
vt 0.391872 0.810926
vt 0.545390 0.810926
vt 0.544307 0.813568
vt 0.394038 0.813586
vt 0.549839 0.796316
vt 0.391302 0.796357
vt 0.387830 0.793531
vt 0.550853 0.793531
vt 0.390307 0.821363
vt 0.553330 0.821363
vt 0.552317 0.824148
vt 0.393778 0.824189
vt 0.030357 0.590235
vt 0.324479 0.590235
vt 0.629385 0.459613
vt 0.629385 0.634245
vt 0.388847 0.634245
vt 0.388847 0.459613
s 1
f 9/1/1 14/2/2 15/3/3 10/4/4
f 23/5/5 25/6/6 32/7/7 24/8/8
f 23/5/9 16/9/9 13/10/9 22/11/9
f 6/12/10 8/13/10 7/14/10 2/15/10
f 1/16/10 5/17/10 6/12/10 2/15/10
f 6/18/11 5/19/11 20/20/11 19/21/11
f 19/21/11 30/22/11 29/23/11 18/24/11
f 21/25/9 20/26/9 5/27/9 15/28/9
f 16/9/12 14/2/2 9/1/1 13/10/13
f 7/14/14 8/13/14 18/24/14 17/29/14
f 12/30/15 4/31/15 3/32/15 11/33/15
f 20/26/9 21/25/9 11/34/9 3/35/9
f 24/8/8 12/36/16 11/37/17 21/38/18
f 27/39/11 30/22/11 19/21/11 4/40/11
f 19/21/11 20/20/11 3/41/11 4/40/11
f 22/11/9 31/42/9 25/6/9 23/5/9
f 6/18/11 19/21/11 18/24/11 8/13/11
f 23/5/5 24/8/8 14/43/19 16/9/20
f 15/28/9 5/27/9 1/44/9 10/45/9
f 32/7/7 26/46/21 12/36/16 24/8/8
f 28/47/14 17/29/14 18/24/14 29/23/14
f 12/30/9 26/48/9 27/49/9 4/31/9
f 14/43/19 24/8/8 21/38/18 15/50/22
f 41/51/23 42/52/24 47/53/25 46/54/26
f 55/55/27 56/56/28 32/7/7 25/6/6
f 55/55/9 54/57/9 45/58/9 48/59/9
f 38/60/29 34/61/29 39/62/29 40/63/29
f 33/64/29 34/61/29 38/60/29 37/65/29
f 38/66/11 51/67/11 52/68/11 37/69/11
f 51/67/11 50/70/11 29/23/11 30/22/11
f 53/71/9 47/72/9 37/73/9 52/74/9
f 48/59/30 45/58/31 41/51/23 46/54/26
f 39/62/14 49/75/14 50/70/14 40/63/14
f 44/76/32 43/77/32 35/78/32 36/79/32
f 52/74/9 35/80/9 43/81/9 53/71/9
f 56/56/28 53/82/33 43/83/34 44/84/35
f 27/39/11 36/85/11 51/67/11 30/22/11
f 51/67/11 36/85/11 35/86/11 52/68/11
f 54/57/9 55/55/9 25/6/9 31/42/9
f 38/66/11 40/63/11 50/70/11 51/67/11
f 55/55/27 48/59/36 46/87/37 56/56/28
f 47/72/9 42/88/9 33/89/9 37/73/9
f 32/7/7 56/56/28 44/84/35 26/46/21
f 28/47/14 29/23/14 50/70/14 49/75/14
f 44/76/9 36/79/9 27/49/9 26/48/9
f 46/87/37 47/90/38 53/82/33 56/56/28
f 9/1/1 10/4/4 65/91/39 64/92/40
f 71/93/41 72/94/42 78/95/43 73/96/44
f 71/93/9 22/11/9 13/10/9 66/97/9
f 60/98/10 2/15/10 7/14/10 61/99/10
f 1/16/10 2/15/10 60/98/10 59/100/10
f 60/101/45 68/102/45 69/103/45 59/104/45
f 68/102/45 67/105/45 76/106/45 77/107/45
f 70/108/9 65/109/9 59/110/9 69/111/9
f 66/97/46 13/10/13 9/1/1 64/92/40
f 7/14/14 17/29/14 67/105/14 61/99/14
f 63/112/15 62/113/15 57/114/15 58/115/15
f 69/111/9 57/116/9 62/117/9 70/108/9
f 72/94/42 70/118/47 62/119/48 63/120/49
f 75/121/45 58/122/45 68/102/45 77/107/45
f 68/102/45 58/122/45 57/123/45 69/103/45
f 22/11/9 71/93/9 73/96/9 31/42/9
f 60/101/45 61/99/45 67/105/45 68/102/45
f 71/93/41 66/97/50 64/124/51 72/94/42
f 65/109/9 10/45/9 1/44/9 59/110/9
f 78/95/43 72/94/42 63/120/49 74/125/52
f 28/47/14 76/106/14 67/105/14 17/29/14
f 63/112/9 58/115/9 75/126/9 74/127/9
f 64/124/51 65/128/53 70/118/47 72/94/42
f 41/51/23 86/129/54 87/130/55 42/52/24
f 93/131/56 73/96/44 78/95/43 94/132/57
f 93/131/9 88/133/9 45/58/9 54/57/9
f 82/134/29 83/135/29 39/62/29 34/61/29
f 33/64/29 81/136/29 82/134/29 34/61/29
f 82/137/45 81/138/45 91/139/45 90/140/45
f 90/140/45 77/107/45 76/106/45 89/141/45
f 92/142/9 91/143/9 81/144/9 87/145/9
f 88/133/58 86/129/54 41/51/23 45/58/31
f 39/62/14 83/135/14 89/141/14 49/75/14
f 85/146/32 80/147/32 79/148/32 84/149/32
f 91/143/9 92/142/9 84/150/9 79/151/9
f 94/132/57 85/152/59 84/153/60 92/154/61
f 75/121/45 77/107/45 90/140/45 80/155/45
f 90/140/45 91/139/45 79/156/45 80/155/45
f 54/57/9 31/42/9 73/96/9 93/131/9
f 82/137/45 90/140/45 89/141/45 83/135/45
f 93/131/56 94/132/57 86/157/62 88/133/63
f 87/145/9 81/144/9 33/89/9 42/88/9
f 78/95/43 74/125/52 85/152/59 94/132/57
f 28/47/14 49/75/14 89/141/14 76/106/14
f 85/146/9 74/127/9 75/126/9 80/147/9
f 86/157/62 94/132/57 92/154/61 87/158/64
f 106/159/65 110/160/66 108/161/67 104/162/68
f 105/163/69 109/164/70 107/165/71 103/166/72
f 103/167/73 107/168/74 110/169/75 106/170/76
f 96/171/10 100/172/10 102/173/10 98/174/10
f 104/175/77 108/176/78 109/177/79 105/178/80
f 95/179/11 98/180/11 102/173/11 99/181/11
f 101/182/45 100/172/45 96/183/45 97/184/45
f 103/185/14 106/186/14 98/187/14 95/188/14
f 97/189/14 96/190/14 104/191/14 105/192/14
f 105/193/14 103/194/14 95/195/14 97/196/14
f 96/197/14 98/198/14 106/199/14 104/200/14
f 100/172/9 101/182/9 99/181/9 102/173/9
f 97/201/29 95/202/29 99/181/29 101/182/29
f 110/203/81 107/204/82 109/205/83 108/206/84
